<?xml version="1.0" encoding="utf-8" standalone="no"?>
<!DOCTYPE svg PUBLIC "-//W3C//DTD SVG 1.1//EN"
  "http://www.w3.org/Graphics/SVG/1.1/DTD/svg11.dtd">
<!-- Created with matplotlib (https://matplotlib.org/) -->
<svg height="576pt" version="1.1" viewBox="0 0 576 576" width="576pt" xmlns="http://www.w3.org/2000/svg" xmlns:xlink="http://www.w3.org/1999/xlink">
 <defs>
  <style type="text/css">
*{stroke-linecap:butt;stroke-linejoin:round;}
  </style>
 </defs>
 <g id="figure_1">
  <g id="patch_1">
   <path d="M 0 576 
L 576 576 
L 576 0 
L 0 0 
z
" style="fill:#ffffff;"/>
  </g>
  <g id="axes_1">
   <g id="PathCollection_1">
    <defs>
     <path d="M 0 3.535534 
C 0.937635 3.535534 1.836992 3.163008 2.5 2.5 
C 3.163008 1.836992 3.535534 0.937635 3.535534 0 
C 3.535534 -0.937635 3.163008 -1.836992 2.5 -2.5 
C 1.836992 -3.163008 0.937635 -3.535534 0 -3.535534 
C -0.937635 -3.535534 -1.836992 -3.163008 -2.5 -2.5 
C -3.163008 -1.836992 -3.535534 -0.937635 -3.535534 0 
C -3.535534 0.937635 -3.163008 1.836992 -2.5 2.5 
C -1.836992 3.163008 -0.937635 3.535534 0 3.535534 
z
" id="m38ebc78dce" style="stroke:#000000;"/>
    </defs>
    <g clip-path="url(#p3c229a28d5)">
     <use style="stroke:#000000;" x="486.947766" xlink:href="#m38ebc78dce" y="315.543338"/>
     <use style="stroke:#000000;" x="459.928407" xlink:href="#m38ebc78dce" y="152.439907"/>
     <use style="stroke:#000000;" x="361.790726" xlink:href="#m38ebc78dce" y="119.52534"/>
     <use style="stroke:#000000;" x="196.753719" xlink:href="#m38ebc78dce" y="471.488894"/>
     <use style="stroke:#000000;" x="164.393655" xlink:href="#m38ebc78dce" y="157.209052"/>
     <use style="stroke:#000000;" x="169.164286" xlink:href="#m38ebc78dce" y="409.123857"/>
     <use style="stroke:#000000;" x="416.511676" xlink:href="#m38ebc78dce" y="141.048006"/>
     <use style="stroke:#000000;" x="126.272641" xlink:href="#m38ebc78dce" y="272.984214"/>
     <use style="stroke:#000000;" x="470.837258" xlink:href="#m38ebc78dce" y="261.656862"/>
     <use style="stroke:#000000;" x="241.544967" xlink:href="#m38ebc78dce" y="88.887273"/>
     <use style="stroke:#000000;" x="442.088069" xlink:href="#m38ebc78dce" y="171.405716"/>
     <use style="stroke:#000000;" x="454.070113" xlink:href="#m38ebc78dce" y="245.978564"/>
     <use style="stroke:#000000;" x="294.143104" xlink:href="#m38ebc78dce" y="437.216699"/>
     <use style="stroke:#000000;" x="485.806864" xlink:href="#m38ebc78dce" y="239.053458"/>
     <use style="stroke:#000000;" x="313.447254" xlink:href="#m38ebc78dce" y="464.563759"/>
     <use style="stroke:#000000;" x="419.446456" xlink:href="#m38ebc78dce" y="116.312595"/>
     <use style="stroke:#000000;" x="356.032981" xlink:href="#m38ebc78dce" y="440.74963"/>
     <use style="stroke:#000000;" x="380.268081" xlink:href="#m38ebc78dce" y="137.416207"/>
     <use style="stroke:#000000;" x="142.397108" xlink:href="#m38ebc78dce" y="274.690499"/>
     <use style="stroke:#000000;" x="126.170925" xlink:href="#m38ebc78dce" y="127.550252"/>
     <use style="stroke:#000000;" x="422.880211" xlink:href="#m38ebc78dce" y="431.166727"/>
     <use style="stroke:#000000;" x="247.562372" xlink:href="#m38ebc78dce" y="445.916917"/>
     <use style="stroke:#000000;" x="499.701705" xlink:href="#m38ebc78dce" y="280.532913"/>
     <use style="stroke:#000000;" x="454.471446" xlink:href="#m38ebc78dce" y="272.204656"/>
     <use style="stroke:#000000;" x="474.281553" xlink:href="#m38ebc78dce" y="371.837743"/>
     <use style="stroke:#000000;" x="125.472517" xlink:href="#m38ebc78dce" y="215.021038"/>
     <use style="stroke:#000000;" x="370.48674" xlink:href="#m38ebc78dce" y="435.013838"/>
     <use style="stroke:#000000;" x="98.157129" xlink:href="#m38ebc78dce" y="325.375145"/>
     <use style="stroke:#000000;" x="462.235704" xlink:href="#m38ebc78dce" y="218.818761"/>
     <use style="stroke:#000000;" x="500.94889" xlink:href="#m38ebc78dce" y="373.375609"/>
     <use style="stroke:#000000;" x="463.45156" xlink:href="#m38ebc78dce" y="124.129445"/>
     <use style="stroke:#000000;" x="456.894427" xlink:href="#m38ebc78dce" y="279.688511"/>
     <use style="stroke:#000000;" x="89.45111" xlink:href="#m38ebc78dce" y="350.306185"/>
     <use style="stroke:#000000;" x="130.866811" xlink:href="#m38ebc78dce" y="323.415948"/>
     <use style="stroke:#000000;" x="179.666912" xlink:href="#m38ebc78dce" y="443.597472"/>
     <use style="stroke:#000000;" x="202.045485" xlink:href="#m38ebc78dce" y="414.741461"/>
     <use style="stroke:#000000;" x="159.970101" xlink:href="#m38ebc78dce" y="252.925419"/>
     <use style="stroke:#000000;" x="135.310198" xlink:href="#m38ebc78dce" y="455.57115"/>
     <use style="stroke:#000000;" x="377.035088" xlink:href="#m38ebc78dce" y="449.574333"/>
     <use style="stroke:#000000;" x="153.151031" xlink:href="#m38ebc78dce" y="145.03911"/>
     <use style="stroke:#000000;" x="185.548372" xlink:href="#m38ebc78dce" y="129.134744"/>
     <use style="stroke:#000000;" x="209.035623" xlink:href="#m38ebc78dce" y="172.875296"/>
     <use style="stroke:#000000;" x="132.430985" xlink:href="#m38ebc78dce" y="218.225905"/>
     <use style="stroke:#000000;" x="218.882554" xlink:href="#m38ebc78dce" y="484.232727"/>
     <use style="stroke:#000000;" x="403.67364" xlink:href="#m38ebc78dce" y="107.264308"/>
     <use style="stroke:#000000;" x="315.926817" xlink:href="#m38ebc78dce" y="89.669186"/>
     <use style="stroke:#000000;" x="431.218554" xlink:href="#m38ebc78dce" y="143.59063"/>
     <use style="stroke:#000000;" x="181.747125" xlink:href="#m38ebc78dce" y="416.708447"/>
     <use style="stroke:#000000;" x="406.845013" xlink:href="#m38ebc78dce" y="473.702641"/>
     <use style="stroke:#000000;" x="215.428559" xlink:href="#m38ebc78dce" y="429.558971"/>
    </g>
   </g>
  </g>
 </g>
 <defs>
  <clipPath id="p3c229a28d5">
   <rect height="434.88" width="446.4" x="72" y="69.12"/>
  </clipPath>
 </defs>
</svg>
